<?xml version="1.0" standalone="no"?>
<!DOCTYPE svg PUBLIC "-//W3C//DTD SVG 20010904//EN"
 "http://www.w3.org/TR/2001/REC-SVG-20010904/DTD/svg10.dtd">
<svg version="1.0" xmlns="http://www.w3.org/2000/svg"
 width="862.000000pt" height="850.000000pt" viewBox="0 0 862.000000 850.000000"
 preserveAspectRatio="xMidYMid meet">

<g transform="translate(0.000000,850.000000) scale(0.100000,-0.100000)"
fill="#000000" stroke="none">
<path d="M4287 8216 c-65 -24 -129 -82 -165 -151 -48 -93 -29 -238 41 -313
l21 -23 -164 -164 c-91 -91 -179 -172 -196 -180 -18 -8 -56 -15 -85 -15 -44 0
-65 7 -123 42 -95 55 -276 179 -276 188 0 4 9 27 20 51 26 59 26 152 0 213
-66 155 -253 226 -402 153 -61 -30 -105 -74 -140 -140 -18 -33 -23 -58 -23
-123 0 -74 3 -85 35 -139 38 -63 108 -122 167 -140 0 0 18 -133 38 -295 20
-162 44 -355 54 -429 16 -120 16 -133 2 -138 -56 -16 -248 -97 -370 -155 -79
-37 -148 -68 -153 -68 -4 0 -8 17 -8 38 0 45 -46 98 -123 142 -27 15 -44 31
-39 34 6 4 25 30 41 60 37 64 51 151 39 236 -37 271 -358 410 -585 254 -178
-122 -216 -380 -79 -532 20 -22 36 -42 36 -44 0 -3 -14 -11 -30 -18 -43 -18
-105 -92 -124 -147 -39 -114 6 -261 95 -312 l29 -16 0 -1401 0 -1401 -87 -17
c-184 -36 -337 -148 -410 -301 -82 -174 -44 -365 95 -471 25 -19 67 -42 94
-52 l48 -17 0 -781 0 -781 -65 -18 c-150 -40 -228 -147 -212 -287 16 -128 117
-212 293 -243 47 -8 111 -15 142 -15 94 0 262 30 352 63 l85 31 258 4 257 3 0
-26 c0 -38 26 -82 58 -99 83 -43 147 -51 422 -50 243 1 277 3 415 28 183 33
306 78 315 116 l6 25 504 0 504 0 6 -24 c4 -19 22 -31 73 -53 127 -54 332 -86
597 -94 356 -12 519 30 536 137 l7 39 248 0 248 0 96 -35 c98 -35 261 -65 357
-65 87 0 228 28 287 58 97 49 151 132 151 233 0 132 -81 219 -243 259 l-47 12
0 780 c0 733 1 779 18 784 9 3 45 19 80 36 233 114 256 439 46 645 -79 77
-195 137 -311 160 l-83 16 -2 1400 -3 1399 25 13 c105 55 151 214 97 337 -21
46 -93 128 -115 128 -4 0 -13 4 -21 9 -11 7 -7 18 22 52 52 60 80 138 80 224
0 222 -189 391 -417 373 -275 -22 -428 -344 -273 -573 l34 -49 -57 -37 c-73
-47 -110 -95 -110 -142 l0 -36 -152 73 c-84 40 -207 94 -273 121 -66 26 -121
48 -121 49 -1 0 5 44 12 96 7 52 18 140 24 195 9 83 30 249 65 521 5 34 11 43
40 57 49 23 112 83 143 136 23 39 27 57 27 126 0 57 -5 90 -18 116 -93 188
-332 233 -481 91 -82 -79 -111 -212 -66 -311 11 -24 20 -47 20 -51 0 -9 -215
-156 -291 -199 -43 -24 -68 -31 -110 -31 -76 0 -112 26 -292 207 l-148 149 35
52 c64 95 68 193 12 298 -36 68 -107 127 -172 143 -58 15 -141 13 -187 -3z
m174 -158 c105 -59 85 -215 -33 -250 -83 -25 -168 33 -175 119 -10 118 103
190 208 131z m-1285 -200 c89 -83 45 -224 -73 -235 -97 -10 -157 50 -150 146
3 47 9 59 40 88 32 29 43 33 92 33 48 0 60 -4 91 -32z m2612 -2 c36 -33 37
-37 37 -100 0 -61 -2 -68 -33 -98 -30 -30 -37 -33 -97 -33 -57 0 -67 3 -94 29
-39 37 -54 88 -41 136 18 69 62 100 137 100 47 0 58 -4 91 -34z m-1153 -399
c128 -130 209 -204 250 -227 55 -33 65 -35 145 -35 78 0 92 3 151 33 35 19
139 83 230 143 91 60 173 109 183 109 20 0 19 -33 -10 -245 -7 -55 -21 -167
-30 -250 -10 -82 -19 -151 -20 -153 -1 -2 -58 6 -126 17 -351 60 -903 90
-1296 73 -264 -12 -558 -40 -717 -68 -49 -8 -105 -18 -122 -21 -33 -6 -33 -5
-33 35 0 22 -9 109 -21 193 -30 225 -49 382 -49 402 0 9 7 17 16 17 9 0 86
-47 172 -104 87 -56 191 -121 232 -142 70 -36 81 -39 160 -39 128 0 155 18
390 256 l195 198 55 0 54 1 191 -193z m-2452 -413 c79 -27 137 -110 137 -199
0 -143 -133 -242 -272 -201 -91 26 -152 109 -152 206 0 151 139 245 287 194z
m4548 4 c133 -39 192 -208 113 -321 -79 -111 -234 -125 -326 -29 -43 45 -54
65 -62 118 -11 64 11 131 58 179 60 60 135 78 217 53z m-1875 -298 c232 -19
648 -77 659 -92 1 -2 -3 -39 -8 -84 l-10 -80 -116 22 c-258 50 -587 75 -991
75 -399 0 -712 -24 -990 -75 -69 -13 -126 -23 -127 -22 -1 1 -3 37 -4 81 l-2
79 104 22 c108 24 371 59 544 73 148 12 792 13 941 1z m-2594 -312 c86 -3 99
-6 122 -27 24 -23 26 -31 26 -113 l0 -88 -242 0 c-272 0 -282 2 -312 64 -17
36 -18 43 -5 79 26 74 76 94 228 90 47 -2 130 -4 183 -5z m858 -24 c0 -16 -21
-50 -61 -97 -158 -187 -277 -410 -347 -647 -51 -178 -67 -286 -67 -475 0 -189
23 -335 77 -495 26 -79 27 -85 11 -93 -10 -5 -53 -45 -95 -88 l-78 -79 0 874
0 874 183 91 c156 77 344 159 370 161 4 0 7 -12 7 -26z m2643 -10 c50 -19 174
-76 275 -126 l182 -90 0 -872 0 -871 -91 89 -91 89 30 101 c52 171 67 281 67
471 -1 131 -6 197 -23 285 -59 315 -185 585 -384 823 -59 71 -91 137 -66 137
5 0 50 -16 101 -36z m1133 3 c64 -58 54 -161 -19 -187 -18 -6 -131 -10 -268
-10 l-239 0 0 81 c0 143 10 148 288 149 l202 0 36 -33z m-2081 13 c198 -14
474 -47 580 -69 l90 -19 72 -77 c140 -150 274 -378 342 -580 59 -176 75 -281
75 -485 0 -167 -3 -196 -28 -304 -108 -461 -403 -822 -841 -1027 -230 -108
-442 -154 -710 -154 -283 0 -485 46 -730 165 -211 103 -349 206 -492 369 -183
209 -294 426 -350 691 -27 128 -24 408 6 550 56 265 160 486 327 695 115 145
122 150 244 174 154 30 374 56 640 74 115 8 650 6 775 -3z m-2415 -1402 l0
-1031 -69 -106 c-120 -184 -211 -364 -261 -514 -21 -66 -23 -68 -54 -65 l-31
3 -3 1373 -2 1372 210 0 210 0 0 -1032z m4398 -340 l-3 -1373 -35 0 -34 0 -31
90 c-54 156 -141 327 -262 512 l-53 83 0 1030 0 1030 210 0 210 0 -2 -1372z
m-3947 -250 c12 -24 44 -76 70 -116 27 -40 49 -76 49 -81 0 -15 192 -211 264
-270 170 -139 371 -249 586 -321 69 -24 127 -45 130 -48 12 -11 -275 9 -385
27 -333 57 -632 188 -792 348 -72 72 -105 137 -111 220 -6 82 27 154 103 229
31 30 58 54 60 54 3 0 14 -19 26 -42z m3166 -3 c104 -91 136 -225 79 -334
-135 -260 -632 -478 -1131 -497 l-140 -5 140 49 c391 135 687 355 889 659 35
54 72 115 82 136 10 20 20 37 24 37 3 0 29 -20 57 -45z m-2053 -1002 c-2 -10
-13 -63 -24 -118 -30 -149 -67 -284 -105 -390 -41 -114 -91 -215 -106 -215 -6
0 -23 8 -37 19 -15 10 -51 30 -79 45 l-53 26 45 69 c73 112 97 183 178 516
l12 50 65 6 c36 3 75 6 87 7 15 2 20 -3 17 -15z m953 7 l62 0 14 -52 c8 -29
25 -98 37 -153 41 -180 96 -316 161 -397 17 -21 26 -38 21 -38 -5 0 -45 -22
-90 -50 l-82 -49 -31 61 c-42 82 -91 220 -123 343 -23 88 -76 328 -76 342 0 3
10 3 23 -1 12 -3 50 -6 84 -6z m-2947 -310 c12 -7 15 -38 15 -157 1 -137 3
-154 29 -223 15 -41 41 -96 58 -122 16 -26 27 -52 23 -58 -4 -6 -85 -8 -243
-4 -268 7 -303 15 -366 84 -138 153 10 431 257 480 59 11 209 12 227 0z m5128
-21 c83 -31 167 -100 205 -167 35 -63 47 -165 27 -226 -22 -68 -84 -121 -165
-140 -31 -8 -465 -17 -476 -10 -4 2 13 43 37 91 59 117 78 209 70 338 -3 55
-9 111 -12 124 l-7 23 129 -4 c103 -4 142 -10 192 -29z m-3835 -157 c51 -22
87 -52 87 -73 0 -3 -31 -9 -68 -12 -237 -20 -509 -282 -531 -511 -6 -57 -8
-61 -33 -64 -35 -4 -102 56 -119 105 -53 162 114 422 346 540 114 58 210 63
318 15z m2577 -14 c121 -59 239 -177 301 -302 41 -83 44 -96 44 -167 0 -71 -2
-80 -31 -116 -38 -47 -92 -77 -111 -61 -7 6 -13 30 -13 55 0 96 -92 259 -203
358 -114 103 -218 153 -334 162 l-72 6 16 23 c20 31 93 73 146 84 80 17 164 3
257 -42z m-2427 -242 c99 -35 211 -102 284 -171 54 -50 68 -71 89 -128 29 -81
31 -140 5 -187 -29 -55 -46 -50 -61 17 -15 71 -37 114 -89 181 -43 53 -73 69
-116 58 -30 -8 -33 -37 -6 -74 39 -57 90 -165 102 -216 14 -66 7 -100 -31
-138 -24 -24 -37 -29 -67 -26 l-36 3 -14 69 c-19 94 -48 152 -108 214 -55 56
-96 68 -114 33 -8 -15 -2 -29 29 -71 44 -59 75 -132 85 -202 6 -42 4 -50 -18
-72 -28 -28 -64 -33 -89 -13 -8 6 -27 34 -43 61 -57 101 -151 173 -248 191
-23 5 -46 18 -58 34 -28 36 -23 118 14 192 45 93 189 223 282 257 52 18 135
13 208 -12z m2148 14 c88 -25 234 -148 291 -248 40 -68 53 -141 34 -186 -13
-31 -22 -37 -73 -52 -120 -35 -204 -98 -251 -191 -30 -58 -55 -76 -92 -68 -44
10 -64 44 -55 97 12 69 42 141 85 198 31 42 37 56 29 71 -19 36 -59 23 -117
-37 -62 -63 -88 -117 -106 -212 -11 -62 -14 -67 -40 -70 -73 -9 -123 53 -112
137 6 45 60 166 111 247 22 35 23 43 11 59 -21 29 -71 24 -107 -11 -47 -45
-97 -134 -116 -208 -10 -36 -22 -65 -27 -63 -5 2 -19 16 -30 31 -29 39 -28
142 3 211 37 84 142 175 281 245 115 59 198 73 281 50z m-3314 -611 c-4 -283
-5 -300 -35 -439 -58 -269 -127 -442 -226 -561 -53 -65 -159 -145 -228 -174
l-38 -15 0 745 0 745 258 2 c141 2 261 0 265 -3 5 -4 7 -139 4 -300z m4674
301 l136 0 2 -745 c2 -521 -1 -745 -8 -745 -21 0 -155 86 -207 133 -126 114
-212 306 -280 627 -24 115 -27 149 -31 418 -3 161 -2 300 1 309 6 14 22 15
129 10 67 -4 183 -7 258 -7z m-3948 -1353 c30 -156 32 -167 17 -167 -21 0
-118 -70 -170 -124 -57 -59 -110 -139 -110 -168 0 -15 -17 -17 -155 -20 l-154
-3 53 55 c107 110 180 229 250 407 21 52 23 54 126 107 58 29 107 54 110 55 3
0 18 -63 33 -142z m3105 -19 c65 -171 140 -296 238 -398 l63 -65 -147 3 c-81
2 -150 6 -153 10 -3 4 -13 28 -23 53 -26 72 -118 157 -263 245 -17 11 -17 15
4 110 12 54 25 117 28 139 4 22 8 46 10 52 3 9 41 -6 114 -42 109 -54 109 -54
129 -107z m-2113 2 c312 -106 517 -110 817 -15 58 18 116 39 128 45 12 6 24 9
27 6 3 -2 -5 -94 -16 -203 -12 -109 -24 -220 -27 -248 l-5 -50 -499 3 -499 2
-5 33 c-18 119 -50 467 -43 467 2 0 57 -18 122 -40z"/>
<path d="M3933 6219 c-137 -145 -342 -219 -603 -219 -41 0 -52 -4 -69 -26 -27
-34 -27 -74 1 -109 l22 -28 140 6 c160 6 257 27 373 82 163 76 293 195 293
268 0 38 -40 77 -79 77 -24 0 -41 -11 -78 -51z"/>
<path d="M4732 6263 c-16 -6 -42 -56 -42 -82 0 -53 140 -180 272 -247 123 -62
225 -86 389 -91 l146 -5 21 27 c28 35 28 75 1 109 -17 22 -28 26 -72 26 -102
1 -243 21 -318 46 -101 33 -179 81 -261 160 -65 63 -93 75 -136 57z"/>
<path d="M3631 5774 c-134 -36 -255 -137 -313 -261 -27 -57 -33 -83 -36 -158
-4 -85 -3 -91 20 -112 13 -13 36 -24 51 -25 l27 -2 0 -173 0 -172 -40 -123
c-53 -166 -69 -237 -76 -343 -5 -76 -3 -99 15 -150 26 -75 87 -135 169 -165
139 -53 292 21 322 156 5 21 6 129 3 239 -7 225 3 298 58 448 17 45 39 109 50
142 11 33 24 64 30 69 5 6 9 14 9 20 0 21 -73 -62 -111 -125 -103 -172 -141
-363 -118 -596 l12 -123 -29 -57 c-37 -74 -93 -108 -164 -98 -47 7 -120 47
-120 67 0 6 -7 19 -16 29 -46 51 -38 183 27 414 l41 150 7 301 6 301 27 40
c55 84 136 123 252 123 105 0 168 -22 226 -78 48 -47 70 -95 70 -155 0 -56 69
-94 120 -67 76 41 21 259 -95 375 -109 108 -271 150 -424 109z"/>
<path d="M4950 5783 c-176 -33 -330 -205 -347 -387 -4 -53 -2 -65 17 -88 23
-30 56 -36 93 -17 29 16 37 28 37 63 0 91 66 182 157 216 71 26 183 28 256 4
66 -22 153 -106 161 -155 3 -19 7 -158 10 -309 l4 -275 47 -175 c38 -140 47
-193 48 -265 2 -82 -1 -94 -25 -137 -33 -55 -76 -84 -138 -93 -82 -11 -152 42
-182 140 -5 19 -4 68 3 132 10 81 10 127 0 224 -14 137 -37 221 -88 325 -37
75 -125 194 -130 177 -2 -5 17 -60 42 -122 89 -219 109 -351 93 -590 -16 -220
12 -295 128 -352 57 -28 71 -31 123 -26 68 6 168 54 206 99 78 92 72 282 -16
548 l-42 125 -4 188 -5 187 29 0 c64 1 90 62 73 177 -17 120 -92 235 -206 314
-88 61 -237 92 -344 72z"/>
<path d="M4216 4994 c-126 -27 -246 -102 -308 -191 -41 -60 -78 -179 -78 -250
0 -122 43 -183 132 -191 48 -4 57 -1 103 32 120 87 168 115 229 131 121 33
232 5 356 -89 107 -82 149 -92 219 -56 61 31 85 89 79 195 -14 259 -250 437
-576 434 -48 0 -118 -7 -156 -15z"/>
</g>
</svg>
